<svg xmlns="http://www.w3.org/2000/svg"  viewBox="0 0 48 48" width="48px" height="48px" fill-rule="evenodd" clip-rule="evenodd" baseProfile="basic"><path fill="#e91e62" fill-rule="evenodd" d="M23.169,3.013	c3.623-0.128,7.889,0.639,8.668,3.065c1.293,4.087-5.307,10.089-10.997,13.027c-1.424,0.767-2.199,0.895-2.587,0.895	s-0.388-0.384-0.259-0.64c0.259-0.383,1.072-1.369,2.328-2.297c6.469-4.981,8.539-8.685,7.375-10.091	c-0.776-0.893-3.451-1.972-7.696-1.972c-0.905,0-3.676,0.036-3.929-0.64C15.942,3.721,19.675,3.141,23.169,3.013L23.169,3.013z" clip-rule="evenodd"/><path fill="#7e57c2" d="M14.737,22.018c3.069-0.131,6.779,0.395,8.823,1.972	c1.023,0.788,1.789,2.363,1.277,4.071c-1.148,4.86-5.623,10.769-15.597,15.237c-3.196,1.443-5.624,1.969-6.136,1.576	c-0.509-0.395,1.023-3.679,1.533-4.729c1.535-3.415,3.581-6.829,5.497-9.851c0.768-1.181,1.791-3.152,2.813-2.889	c0.896,0.129-0.125,2.231-0.893,3.545c-1.149,2.235-4.347,8.404-3.324,8.801c2.301,0.788,13.169-7.749,11.635-12.479	c-0.768-2.233-5.365-2.273-8.364-2.273c-1.405,0-4.851,0.304-4.979-0.877C6.894,23.201,11.926,22.15,14.737,22.018L14.737,22.018z"/><path fill="#ff6f00" d="M39.143,16.374c1.839,0.395,3.415,0.656,3.808,1.443	c0.393,0.919-1.707,0.919-2.627,0.919c-4.991,0.132-8.319,0.132-8.581,1.839c-0.132,2.1,2.54,4.331,4.773,7.349	c2.101,2.757,4.913,5.785,4.408,8.139c-0.789,3.149-5.329,3.937-9.135,3.937c-3.548,0-6.963-0.524-8.408-0.788	c-1.836-0.393-1.445-1.18-1.049-1.445c0.525-0.263,3.544-0.263,5.647-0.392c1.993-0.099,7.299-0.264,8.088-1.576	c0.919-1.575-2.045-4.2-4.147-7.088c-2.628-3.541-6.087-7.085-4.513-9.843C29.509,15.587,35.861,15.718,39.143,16.374L39.143,16.374	z"/></svg>